<?xml version="1.0" encoding="UTF-8" standalone="no"?>
<svg
   xmlns:dc="http://purl.org/dc/elements/1.1/"
   xmlns:cc="http://creativecommons.org/ns#"
   xmlns:rdf="http://www.w3.org/1999/02/22-rdf-syntax-ns#"
   xmlns:svg="http://www.w3.org/2000/svg"
   xmlns="http://www.w3.org/2000/svg"
   xmlns:sodipodi="http://sodipodi.sourceforge.net/DTD/sodipodi-0.dtd"
   xmlns:inkscape="http://www.inkscape.org/namespaces/inkscape"
   inkscape:export-ydpi="96"
   inkscape:export-xdpi="96"
   inkscape:export-filename="/home/sven/dev/c/BSchaffl/inc/convert_to_linear_shape.png"
   sodipodi:docname="convert_to_linear_shape.svg"
   inkscape:version="1.0 (6e3e5246a0, 2020-05-07)"
   id="svg990"
   version="1.1"
   viewBox="0 0 13.229166 5.2916668"
   height="20"
   width="50">
  <defs
     id="defs984">
    <marker
       inkscape:isstock="true"
       style="overflow:visible;"
       id="Arrow1Send"
       refX="0.0"
       refY="0.0"
       orient="auto"
       inkscape:stockid="Arrow1Send">
      <path
         transform="scale(0.2) rotate(180) translate(6,0)"
         style="fill-rule:evenodd;stroke:#cccccc;stroke-width:1pt;stroke-opacity:1;fill:#cccccc;fill-opacity:1"
         d="M 0.0,0.0 L 5.0,-5.0 L -12.5,0.0 L 5.0,5.0 L 0.0,0.0 z "
         id="path1640" />
    </marker>
  </defs>
  <sodipodi:namedview
     inkscape:window-maximized="1"
     inkscape:window-y="27"
     inkscape:window-x="0"
     inkscape:window-height="1016"
     inkscape:window-width="1920"
     units="px"
     showgrid="true"
     inkscape:document-rotation="0"
     inkscape:current-layer="g1133"
     inkscape:document-units="px"
     inkscape:cy="10"
     inkscape:cx="25"
     inkscape:zoom="15.810908"
     inkscape:pageshadow="2"
     inkscape:pageopacity="0"
     borderopacity="1.0"
     bordercolor="#666666"
     pagecolor="#000000"
     id="base">
    <inkscape:grid
       id="grid1553"
       type="xygrid" />
  </sodipodi:namedview>
  <metadata
     id="metadata987">
    <rdf:RDF>
      <cc:Work
         rdf:about="">
        <dc:format>image/svg+xml</dc:format>
        <dc:type
           rdf:resource="http://purl.org/dc/dcmitype/StillImage" />
        <dc:title></dc:title>
      </cc:Work>
    </rdf:RDF>
  </metadata>
  <g
     id="layer1"
     inkscape:groupmode="layer"
     inkscape:label="Ebene 1">
    <g
       style="display:inline"
       id="g1133"
       transform="translate(-103.1875,-17.4625)">
      <g
         transform="translate(-6.3500009,-0.52913681)"
         id="g1087"
         style="stroke:#cccccc">
        <path
           style="fill:none;stroke:#cccccc;stroke-width:0.264583;stroke-linecap:butt;stroke-linejoin:miter;stroke-miterlimit:4;stroke-dasharray:none;stroke-dashoffset:0;stroke-opacity:1"
           d="m 117.60729,20.769762 2.11666,-1.058334 2.11667,1.5875"
           id="path1065"
           sodipodi:nodetypes="ccc" />
        <path
           style="fill:#808080;stroke:#cccccc;stroke-width:0.264583;stroke-linecap:butt;stroke-linejoin:miter;stroke-miterlimit:4;stroke-dasharray:none;stroke-opacity:1"
           d="m 117.13314,20.77062 0.47655,0.475445 0.47656,-0.475445 -0.47656,-0.475446 z"
           id="path1033" />
        <path
           id="path1033-3"
           d="m 119.2498,19.712287 0.47655,0.475445 0.47656,-0.475445 -0.47656,-0.475446 z"
           style="display:inline;fill:#808080;stroke:#cccccc;stroke-width:0.264583;stroke-linecap:butt;stroke-linejoin:miter;stroke-miterlimit:4;stroke-dasharray:none;stroke-opacity:1" />
        <path
           style="display:inline;fill:#808080;stroke:#cccccc;stroke-width:0.264583;stroke-linecap:butt;stroke-linejoin:miter;stroke-miterlimit:4;stroke-dasharray:none;stroke-opacity:1"
           d="m 121.36647,21.299787 0.47655,0.475445 0.47656,-0.475445 -0.47656,-0.475446 z"
           id="path1033-3-6" />
      </g>
      <g
         id="g1115"
         style="fill:#cccccc"
         transform="translate(0,-1.058334)">
        <path
           id="path944"
           style="fill:#cccccc;stroke:none;stroke-width:0.432063;stroke-miterlimit:4;stroke-dasharray:none"
           d="m 104.11354,19.314585 a 0.26458336,0.39687502 0 0 0 -0.26459,0.396875 v 2.910416 a 0.26458336,0.39687502 0 0 0 0.26459,0.396875 0.26458336,0.39687502 0 0 0 0.26458,-0.396875 V 19.71146 a 0.26458336,0.39687502 0 0 0 -0.26458,-0.396875 z" />
        <circle
           style="fill:#cccccc;stroke:none;stroke-width:0.529167;stroke-miterlimit:4;stroke-dasharray:none"
           id="path997"
           cx="104.11354"
           cy="21.29896"
           r="0.66145837" />
        <path
           d="m 105.43647,19.314585 a 0.26458336,0.39687502 0 0 0 -0.26458,0.396875 v 2.910416 a 0.26458336,0.39687502 0 0 0 0.26458,0.396875 0.26458336,0.39687502 0 0 0 0.26459,-0.396875 V 19.71146 a 0.26458336,0.39687502 0 0 0 -0.26459,-0.396875 z"
           style="display:inline;fill:#cccccc;stroke:none;stroke-width:0.432063;stroke-miterlimit:4;stroke-dasharray:none"
           id="path944-7" />
        <circle
           r="0.66145837"
           cy="20.240625"
           cx="105.43645"
           id="path997-5"
           style="display:inline;fill:#cccccc;stroke:none;stroke-width:0.529167;stroke-miterlimit:4;stroke-dasharray:none" />
        <path
           d="m 106.75936,19.314584 a 0.26458336,0.39687502 0 0 0 -0.26458,0.396875 v 2.910416 a 0.26458336,0.39687502 0 0 0 0.26458,0.396875 0.26458336,0.39687502 0 0 0 0.26459,-0.396875 v -2.910416 a 0.26458336,0.39687502 0 0 0 -0.26459,-0.396875 z"
           style="display:inline;fill:#cccccc;stroke:none;stroke-width:0.432063;stroke-miterlimit:4;stroke-dasharray:none"
           id="path944-3" />
        <circle
           r="0.66145837"
           cy="21.828127"
           cx="106.75938"
           id="path997-56"
           style="display:inline;fill:#cccccc;stroke:none;stroke-width:0.529167;stroke-miterlimit:4;stroke-dasharray:none" />
      </g>
      <path
         id="path1623"
         d="m 114.56458,20.63747 h 2.11666"
         style="display:inline;stroke:#cccccc;fill:none;stroke-width:0.264583px;stroke-linecap:butt;stroke-linejoin:miter;stroke-opacity:1;marker-end:url(#Arrow1Send)"
         transform="translate(-6.8791626,-0.52913681)" />
    </g>
  </g>
</svg>
