<?xml version="1.0" encoding="UTF-8" standalone="no"?>
<svg
   xmlns:dc="http://purl.org/dc/elements/1.1/"
   xmlns:cc="http://creativecommons.org/ns#"
   xmlns:rdf="http://www.w3.org/1999/02/22-rdf-syntax-ns#"
   xmlns:svg="http://www.w3.org/2000/svg"
   xmlns="http://www.w3.org/2000/svg"
   xmlns:sodipodi="http://sodipodi.sourceforge.net/DTD/sodipodi-0.dtd"
   xmlns:inkscape="http://www.inkscape.org/namespaces/inkscape"
   inkscape:export-ydpi="96"
   inkscape:export-xdpi="96"
   inkscape:export-filename="/home/sven/dev/c/BSchaffl/inc/tools.png"
   sodipodi:docname="tools.svg"
   inkscape:version="1.0 (6e3e5246a0, 2020-05-07)"
   id="svg954"
   version="1.1"
   viewBox="0 0 10.583333 6.8791667"
   height="26"
   width="40">
  <defs
     id="defs948" />
  <sodipodi:namedview
     inkscape:window-maximized="1"
     inkscape:window-y="27"
     inkscape:window-x="0"
     inkscape:window-height="1016"
     inkscape:window-width="1920"
     units="px"
     showgrid="true"
     inkscape:document-rotation="0"
     inkscape:current-layer="layer1"
     inkscape:document-units="px"
     inkscape:cy="12.705263"
     inkscape:cx="3.0533552"
     inkscape:zoom="7.9195959"
     inkscape:pageshadow="2"
     inkscape:pageopacity="1"
     borderopacity="1.0"
     bordercolor="#666666"
     pagecolor="#000000"
     id="base">
    <inkscape:grid
       id="grid1517"
       type="xygrid" />
  </sodipodi:namedview>
  <metadata
     id="metadata951">
    <rdf:RDF>
      <cc:Work
         rdf:about="">
        <dc:format>image/svg+xml</dc:format>
        <dc:type
           rdf:resource="http://purl.org/dc/dcmitype/StillImage" />
        <dc:title></dc:title>
      </cc:Work>
    </rdf:RDF>
  </metadata>
  <g
     id="layer1"
     inkscape:groupmode="layer"
     inkscape:label="Ebene 1">
    <path
       style="display:inline;fill:#cccccc;fill-opacity:1;stroke:#ffffff;stroke-width:0;stroke-linejoin:miter;stroke-miterlimit:4;stroke-dasharray:none;stroke-dashoffset:0;stroke-opacity:0"
       d="M 4.8573527,3.4032829 A 1.0271692,1.0271692 0 0 0 5.2905685,2.4729707 L 4.72963,2.8657442 4.1545806,2.641427 4.1404698,2.0243363 4.7010797,1.6317931 A 1.0271692,1.0271692 0 0 0 3.6790324,1.7204672 1.0271692,1.0271692 0 0 0 3.2461452,2.6505491 L 0.74821566,4.3996184 A 0.51358466,0.51358466 0 0 0 0.62209182,5.1149024 0.51358466,0.51358466 0 0 0 1.3373759,5.2410262 L 3.8349767,3.4921871 a 1.0271692,1.0271692 0 0 0 1.022376,-0.088904 z m -3.7163636,1.557274 a 0.17119488,0.17119488 0 0 1 -0.238428,-0.042041 0.17119488,0.17119488 0 0 1 0.0420413,-0.238428 0.17119488,0.17119488 0 0 1 0.238428,0.042041 0.17119488,0.17119488 0 0 1 -0.042041,0.238428 z"
       id="path1638"
       inkscape:connector-curvature="0" />
    <path
       sodipodi:nodetypes="ccc"
       id="path1549"
       d="m 9.5249997,0 v 6.8791666 0"
       style="fill:#808080;stroke:#808080;stroke-width:0.264583;stroke-linecap:butt;stroke-linejoin:miter;stroke-miterlimit:4;stroke-dasharray:none;stroke-opacity:1" />
  </g>
</svg>
